<?xml version="1.0" encoding="UTF-8" standalone="no"?><svg xmlns="http://www.w3.org/2000/svg" xmlns:xlink="http://www.w3.org/1999/xlink" contentScriptType="application/ecmascript" contentStyleType="text/css" height="1364px" preserveAspectRatio="none" style="width:1026px;height:1364px;" version="1.1" viewBox="0 0 1026 1364" width="1026px" zoomAndPan="magnify"><defs><filter height="300%" id="f12kj72o6heu6v" width="300%" x="-1" y="-1"><feGaussianBlur result="blurOut" stdDeviation="2.0"/><feColorMatrix in="blurOut" result="blurOut2" type="matrix" values="0 0 0 0 0 0 0 0 0 0 0 0 0 0 0 0 0 0 .4 0"/><feOffset dx="4.0" dy="4.0" in="blurOut2" result="blurOut3"/><feBlend in="SourceGraphic" in2="blurOut3" mode="normal"/></filter></defs><g><text fill="#000000" font-family="sans-serif" font-size="18" lengthAdjust="spacingAndGlyphs" textLength="75" x="475.5" y="28.708">Play day</text><rect fill="#FFFFFF" filter="url(#f12kj72o6heu6v)" height="46.2656" style="stroke: #000000; stroke-width: 2.0;" width="523" x="309.5" y="319.9141"/><rect fill="#FFFFFF" filter="url(#f12kj72o6heu6v)" height="46.2656" style="stroke: #000000; stroke-width: 2.0;" width="523" x="309.5" y="380.1797"/><rect fill="#FFFFFF" filter="url(#f12kj72o6heu6v)" height="694.7266" style="stroke: #000000; stroke-width: 2.0;" width="954" x="20" y="526.5156"/><rect fill="#FFFFFF" filter="url(#f12kj72o6heu6v)" height="254.1953" style="stroke: #000000; stroke-width: 2.0;" width="812.5" x="30" y="592.7813"/><rect fill="#FFFFFF" filter="url(#f12kj72o6heu6v)" height="46.2656" style="stroke: #000000; stroke-width: 2.0;" width="792.5" x="40" y="675.1797"/><rect fill="#FFFFFF" filter="url(#f12kj72o6heu6v)" height="46.2656" style="stroke: #000000; stroke-width: 2.0;" width="792.5" x="40" y="735.4453"/><rect fill="#FFFFFF" filter="url(#f12kj72o6heu6v)" height="195.9297" style="stroke: #000000; stroke-width: 2.0;" width="812.5" x="30" y="860.9766"/><rect fill="#FFFFFF" filter="url(#f12kj72o6heu6v)" height="46.2656" style="stroke: #000000; stroke-width: 2.0;" width="792.5" x="40" y="943.375"/><rect fill="#FFFFFF" filter="url(#f12kj72o6heu6v)" height="46.2656" style="stroke: #000000; stroke-width: 2.0;" width="792.5" x="40" y="1003.6406"/><rect fill="#FFFFFF" height="86.0703" style="stroke: none; stroke-width: 1.0;" width="954" x="20" y="1135.1719"/><line style="stroke: #A80036; stroke-width: 1.0; stroke-dasharray: 5.0,5.0;" x1="75" x2="75" y1="123.25" y2="1280.375"/><line style="stroke: #A80036; stroke-width: 1.0; stroke-dasharray: 5.0,5.0;" x1="348.5" x2="348.5" y1="123.25" y2="1280.375"/><line style="stroke: #A80036; stroke-width: 1.0; stroke-dasharray: 5.0,5.0;" x1="798.5" x2="798.5" y1="123.25" y2="1280.375"/><rect fill="#FEFECE" filter="url(#f12kj72o6heu6v)" height="30.2969" style="stroke: #A80036; stroke-width: 1.5;" width="46" x="50" y="87.9531"/><text fill="#000000" font-family="sans-serif" font-size="14" lengthAdjust="spacingAndGlyphs" textLength="32" x="57" y="107.9482">Host</text><rect fill="#FEFECE" filter="url(#f12kj72o6heu6v)" height="30.2969" style="stroke: #A80036; stroke-width: 1.5;" width="46" x="50" y="1279.375"/><text fill="#000000" font-family="sans-serif" font-size="14" lengthAdjust="spacingAndGlyphs" textLength="32" x="57" y="1299.3701">Host</text><rect fill="#FEFECE" filter="url(#f12kj72o6heu6v)" height="30.2969" style="stroke: #A80036; stroke-width: 1.5;" width="55" x="319.5" y="87.9531"/><text fill="#000000" font-family="sans-serif" font-size="14" lengthAdjust="spacingAndGlyphs" textLength="41" x="326.5" y="107.9482">Board</text><rect fill="#FEFECE" filter="url(#f12kj72o6heu6v)" height="30.2969" style="stroke: #A80036; stroke-width: 1.5;" width="55" x="319.5" y="1279.375"/><text fill="#000000" font-family="sans-serif" font-size="14" lengthAdjust="spacingAndGlyphs" textLength="41" x="326.5" y="1299.3701">Board</text><text fill="#000000" font-family="sans-serif" font-size="14" lengthAdjust="spacingAndGlyphs" textLength="41" x="775.5" y="119.9482">Player</text><ellipse cx="799" cy="49.9531" fill="#FEFECE" filter="url(#f12kj72o6heu6v)" rx="8" ry="8" style="stroke: #A80036; stroke-width: 2.0;"/><path d="M799,57.9531 L799,84.9531 M786,65.9531 L812,65.9531 M799,84.9531 L786,99.9531 M799,84.9531 L812,99.9531 " fill="none" filter="url(#f12kj72o6heu6v)" style="stroke: #A80036; stroke-width: 2.0;"/><text fill="#000000" font-family="sans-serif" font-size="14" lengthAdjust="spacingAndGlyphs" textLength="41" x="775.5" y="1292.3701">Player</text><ellipse cx="799" cy="1305.6719" fill="#FEFECE" filter="url(#f12kj72o6heu6v)" rx="8" ry="8" style="stroke: #A80036; stroke-width: 2.0;"/><path d="M799,1313.6719 L799,1340.6719 M786,1321.6719 L812,1321.6719 M799,1340.6719 L786,1355.6719 M799,1340.6719 L812,1355.6719 " fill="none" filter="url(#f12kj72o6heu6v)" style="stroke: #A80036; stroke-width: 2.0;"/><line style="stroke: #A80036; stroke-width: 1.0;" x1="799" x2="841" y1="154.3828" y2="154.3828"/><line style="stroke: #A80036; stroke-width: 1.0;" x1="841" x2="841" y1="154.3828" y2="167.3828"/><line style="stroke: #A80036; stroke-width: 1.0;" x1="800" x2="841" y1="167.3828" y2="167.3828"/><polygon fill="#A80036" points="810,163.3828,800,167.3828,810,171.3828,806,167.3828" style="stroke: #A80036; stroke-width: 1.0;"/><text fill="#000000" font-family="sans-serif" font-size="13" lengthAdjust="spacingAndGlyphs" textLength="58" x="806" y="149.3169">take turn</text><line style="stroke: #A80036; stroke-width: 1.0;" x1="799" x2="841" y1="196.5156" y2="196.5156"/><line style="stroke: #A80036; stroke-width: 1.0;" x1="841" x2="841" y1="196.5156" y2="209.5156"/><line style="stroke: #A80036; stroke-width: 1.0;" x1="800" x2="841" y1="209.5156" y2="209.5156"/><polygon fill="#A80036" points="810,205.5156,800,209.5156,810,213.5156,806,209.5156" style="stroke: #A80036; stroke-width: 1.0;"/><text fill="#000000" font-family="sans-serif" font-size="13" lengthAdjust="spacingAndGlyphs" textLength="146" x="806" y="191.4497">decide current position</text><line style="stroke: #A80036; stroke-width: 1.0;" x1="799" x2="841" y1="238.6484" y2="238.6484"/><line style="stroke: #A80036; stroke-width: 1.0;" x1="841" x2="841" y1="238.6484" y2="251.6484"/><line style="stroke: #A80036; stroke-width: 1.0;" x1="800" x2="841" y1="251.6484" y2="251.6484"/><polygon fill="#A80036" points="810,247.6484,800,251.6484,810,255.6484,806,251.6484" style="stroke: #A80036; stroke-width: 1.0;"/><text fill="#000000" font-family="sans-serif" font-size="13" lengthAdjust="spacingAndGlyphs" textLength="213" x="806" y="233.5825">determine turn based on position</text><polygon fill="#A80036" points="360,300.9141,350,304.9141,360,308.9141,356,304.9141" style="stroke: #A80036; stroke-width: 1.0;"/><line style="stroke: #A80036; stroke-width: 1.0;" x1="354" x2="798" y1="304.9141" y2="304.9141"/><text fill="#000000" font-family="sans-serif" font-size="13" lengthAdjust="spacingAndGlyphs" textLength="212" x="366" y="299.8481">move one step to adjacent areas</text><path d="M309.5,319.9141 L434.5,319.9141 L434.5,326.9141 L424.5,336.9141 L309.5,336.9141 L309.5,319.9141 " fill="#EEEEEE" style="stroke: #000000; stroke-width: 1.0;"/><rect fill="none" height="46.2656" style="stroke: #000000; stroke-width: 2.0;" width="523" x="309.5" y="319.9141"/><text fill="#000000" font-family="sans-serif" font-size="13" font-weight="bold" lengthAdjust="spacingAndGlyphs" textLength="80" x="324.5" y="332.981">"take role"</text><polygon fill="#A80036" points="360,354.1797,350,358.1797,360,362.1797,356,358.1797" style="stroke: #A80036; stroke-width: 1.0;"/><line style="stroke: #A80036; stroke-width: 1.0;" x1="354" x2="798" y1="358.1797" y2="358.1797"/><text fill="#000000" font-family="sans-serif" font-size="13" lengthAdjust="spacingAndGlyphs" textLength="426" x="366" y="353.1138">place die on role equal or below rank and not taken by other player</text><path d="M309.5,380.1797 L535.5,380.1797 L535.5,387.1797 L525.5,397.1797 L309.5,397.1797 L309.5,380.1797 " fill="#EEEEEE" style="stroke: #000000; stroke-width: 1.0;"/><rect fill="none" height="46.2656" style="stroke: #000000; stroke-width: 2.0;" width="523" x="309.5" y="380.1797"/><text fill="#000000" font-family="sans-serif" font-size="13" font-weight="bold" lengthAdjust="spacingAndGlyphs" textLength="181" x="324.5" y="393.2466">"move onto set, no role"</text><polygon fill="#A80036" points="360,414.4453,350,418.4453,360,422.4453,356,418.4453" style="stroke: #A80036; stroke-width: 1.0;"/><line style="stroke: #A80036; stroke-width: 1.0;" x1="354" x2="798" y1="418.4453" y2="418.4453"/><text fill="#000000" font-family="sans-serif" font-size="13" lengthAdjust="spacingAndGlyphs" textLength="188" x="366" y="413.3794">place die on blank area of set</text><polygon fill="#A80036" points="787,465.3828,797,469.3828,787,473.3828,791,469.3828" style="stroke: #A80036; stroke-width: 1.0;"/><line style="stroke: #A80036; stroke-width: 1.0;" x1="75" x2="793" y1="469.3828" y2="469.3828"/><text fill="#000000" font-family="sans-serif" font-size="13" lengthAdjust="spacingAndGlyphs" textLength="115" x="82" y="464.3169">determine budget</text><line style="stroke: #A80036; stroke-width: 1.0;" x1="799" x2="841" y1="498.5156" y2="498.5156"/><line style="stroke: #A80036; stroke-width: 1.0;" x1="841" x2="841" y1="498.5156" y2="511.5156"/><line style="stroke: #A80036; stroke-width: 1.0;" x1="800" x2="841" y1="511.5156" y2="511.5156"/><polygon fill="#A80036" points="810,507.5156,800,511.5156,810,515.5156,806,511.5156" style="stroke: #A80036; stroke-width: 1.0;"/><text fill="#000000" font-family="sans-serif" font-size="13" lengthAdjust="spacingAndGlyphs" textLength="161" x="806" y="493.4497">decide to act or rehearse</text><path d="M20,526.5156 L102,526.5156 L102,533.5156 L92,543.5156 L20,543.5156 L20,526.5156 " fill="#EEEEEE" style="stroke: #000000; stroke-width: 1.0;"/><rect fill="none" height="694.7266" style="stroke: #000000; stroke-width: 2.0;" width="954" x="20" y="526.5156"/><text fill="#000000" font-family="sans-serif" font-size="13" font-weight="bold" lengthAdjust="spacingAndGlyphs" textLength="37" x="35" y="539.5825">"act"</text><line style="stroke: #A80036; stroke-width: 1.0;" x1="799" x2="841" y1="564.7813" y2="564.7813"/><line style="stroke: #A80036; stroke-width: 1.0;" x1="841" x2="841" y1="564.7813" y2="577.7813"/><line style="stroke: #A80036; stroke-width: 1.0;" x1="800" x2="841" y1="577.7813" y2="577.7813"/><polygon fill="#A80036" points="810,573.7813,800,577.7813,810,581.7813,806,577.7813" style="stroke: #A80036; stroke-width: 1.0;"/><text fill="#000000" font-family="sans-serif" font-size="13" lengthAdjust="spacingAndGlyphs" textLength="93" x="806" y="559.7153">roll 6-sided die</text><path d="M30,592.7813 L147,592.7813 L147,599.7813 L137,609.7813 L30,609.7813 L30,592.7813 " fill="#EEEEEE" style="stroke: #000000; stroke-width: 1.0;"/><rect fill="none" height="254.1953" style="stroke: #000000; stroke-width: 2.0;" width="812.5" x="30" y="592.7813"/><text fill="#000000" font-family="sans-serif" font-size="13" font-weight="bold" lengthAdjust="spacingAndGlyphs" textLength="72" x="45" y="605.8481">"success"</text><polygon fill="#A80036" points="787,627.0469,797,631.0469,787,635.0469,791,631.0469" style="stroke: #A80036; stroke-width: 1.0;"/><line style="stroke: #A80036; stroke-width: 1.0;" x1="75" x2="793" y1="631.0469" y2="631.0469"/><text fill="#000000" font-family="sans-serif" font-size="13" lengthAdjust="spacingAndGlyphs" textLength="242" x="82" y="625.981">determine whether on card or off card</text><polygon fill="#A80036" points="787,656.1797,797,660.1797,787,664.1797,791,660.1797" style="stroke: #A80036; stroke-width: 1.0;"/><line style="stroke: #A80036; stroke-width: 1.0;" x1="75" x2="793" y1="660.1797" y2="660.1797"/><text fill="#000000" font-family="sans-serif" font-size="13" lengthAdjust="spacingAndGlyphs" textLength="240" x="82" y="655.1138">reward player with appropriate reward</text><path d="M40,675.1797 L141,675.1797 L141,682.1797 L131,692.1797 L40,692.1797 L40,675.1797 " fill="#EEEEEE" style="stroke: #000000; stroke-width: 1.0;"/><rect fill="none" height="46.2656" style="stroke: #000000; stroke-width: 2.0;" width="792.5" x="40" y="675.1797"/><text fill="#000000" font-family="sans-serif" font-size="13" font-weight="bold" lengthAdjust="spacingAndGlyphs" textLength="56" x="55" y="688.2466">on card</text><polygon fill="#A80036" points="787,709.4453,797,713.4453,787,717.4453,791,713.4453" style="stroke: #A80036; stroke-width: 1.0;"/><line style="stroke: #A80036; stroke-width: 1.0;" x1="75" x2="793" y1="713.4453" y2="713.4453"/><text fill="#000000" font-family="sans-serif" font-size="13" lengthAdjust="spacingAndGlyphs" textLength="128" x="82" y="708.3794">give player 2 credits</text><path d="M40,735.4453 L144,735.4453 L144,742.4453 L134,752.4453 L40,752.4453 L40,735.4453 " fill="#EEEEEE" style="stroke: #000000; stroke-width: 1.0;"/><rect fill="none" height="46.2656" style="stroke: #000000; stroke-width: 2.0;" width="792.5" x="40" y="735.4453"/><text fill="#000000" font-family="sans-serif" font-size="13" font-weight="bold" lengthAdjust="spacingAndGlyphs" textLength="59" x="55" y="748.5122">off card</text><polygon fill="#A80036" points="787,769.7109,797,773.7109,787,777.7109,791,773.7109" style="stroke: #A80036; stroke-width: 1.0;"/><line style="stroke: #A80036; stroke-width: 1.0;" x1="75" x2="793" y1="773.7109" y2="773.7109"/><text fill="#000000" font-family="sans-serif" font-size="13" lengthAdjust="spacingAndGlyphs" textLength="232" x="82" y="768.645">give player one dollar and one credit</text><polygon fill="#A80036" points="337,805.8438,347,809.8438,337,813.8438,341,809.8438" style="stroke: #A80036; stroke-width: 1.0;"/><line style="stroke: #A80036; stroke-width: 1.0;" x1="75" x2="343" y1="809.8438" y2="809.8438"/><text fill="#000000" font-family="sans-serif" font-size="13" lengthAdjust="spacingAndGlyphs" textLength="209" x="82" y="804.7778">remove shot counter from board</text><polygon fill="#A80036" points="337,834.9766,347,838.9766,337,842.9766,341,838.9766" style="stroke: #A80036; stroke-width: 1.0;"/><line style="stroke: #A80036; stroke-width: 1.0;" x1="75" x2="343" y1="838.9766" y2="838.9766"/><text fill="#000000" font-family="sans-serif" font-size="13" lengthAdjust="spacingAndGlyphs" textLength="250" x="82" y="833.9106">if no more shot counters, perform wrap</text><path d="M30,860.9766 L136,860.9766 L136,867.9766 L126,877.9766 L30,877.9766 L30,860.9766 " fill="#EEEEEE" style="stroke: #000000; stroke-width: 1.0;"/><rect fill="none" height="195.9297" style="stroke: #000000; stroke-width: 2.0;" width="812.5" x="30" y="860.9766"/><text fill="#000000" font-family="sans-serif" font-size="13" font-weight="bold" lengthAdjust="spacingAndGlyphs" textLength="61" x="45" y="874.0435">"failure"</text><polygon fill="#A80036" points="787,895.2422,797,899.2422,787,903.2422,791,899.2422" style="stroke: #A80036; stroke-width: 1.0;"/><line style="stroke: #A80036; stroke-width: 1.0;" x1="75" x2="793" y1="899.2422" y2="899.2422"/><text fill="#000000" font-family="sans-serif" font-size="13" lengthAdjust="spacingAndGlyphs" textLength="240" x="82" y="894.1763">determine whether play on or off card</text><polygon fill="#A80036" points="787,924.375,797,928.375,787,932.375,791,928.375" style="stroke: #A80036; stroke-width: 1.0;"/><line style="stroke: #A80036; stroke-width: 1.0;" x1="75" x2="793" y1="928.375" y2="928.375"/><text fill="#000000" font-family="sans-serif" font-size="13" lengthAdjust="spacingAndGlyphs" textLength="217" x="82" y="923.3091">reward with appropriate ammount</text><path d="M40,943.375 L146,943.375 L146,950.375 L136,960.375 L40,960.375 L40,943.375 " fill="#EEEEEE" style="stroke: #000000; stroke-width: 1.0;"/><rect fill="none" height="46.2656" style="stroke: #000000; stroke-width: 2.0;" width="792.5" x="40" y="943.375"/><text fill="#000000" font-family="sans-serif" font-size="13" font-weight="bold" lengthAdjust="spacingAndGlyphs" textLength="61" x="55" y="956.4419">on card:</text><polygon fill="#A80036" points="787,977.6406,797,981.6406,787,985.6406,791,981.6406" style="stroke: #A80036; stroke-width: 1.0;"/><line style="stroke: #A80036; stroke-width: 1.0;" x1="75" x2="793" y1="981.6406" y2="981.6406"/><text fill="#000000" font-family="sans-serif" font-size="13" lengthAdjust="spacingAndGlyphs" textLength="138" x="82" y="976.5747">player gets no reward</text><path d="M40,1003.6406 L149,1003.6406 L149,1010.6406 L139,1020.6406 L40,1020.6406 L40,1003.6406 " fill="#EEEEEE" style="stroke: #000000; stroke-width: 1.0;"/><rect fill="none" height="46.2656" style="stroke: #000000; stroke-width: 2.0;" width="792.5" x="40" y="1003.6406"/><text fill="#000000" font-family="sans-serif" font-size="13" font-weight="bold" lengthAdjust="spacingAndGlyphs" textLength="64" x="55" y="1016.7075">off card:</text><polygon fill="#A80036" points="787,1037.9063,797,1041.9063,787,1045.9063,791,1041.9063" style="stroke: #A80036; stroke-width: 1.0;"/><line style="stroke: #A80036; stroke-width: 1.0;" x1="75" x2="793" y1="1041.9063" y2="1041.9063"/><text fill="#000000" font-family="sans-serif" font-size="13" lengthAdjust="spacingAndGlyphs" textLength="108" x="82" y="1036.8403">give player dollar</text><polygon fill="#A80036" points="337,1081.0391,347,1085.0391,337,1089.0391,341,1085.0391" style="stroke: #A80036; stroke-width: 1.0;"/><line style="stroke: #A80036; stroke-width: 1.0;" x1="75" x2="343" y1="1085.0391" y2="1085.0391"/><text fill="#000000" font-family="sans-serif" font-size="13" lengthAdjust="spacingAndGlyphs" textLength="111" x="82" y="1079.9731">determine if wrap</text><line style="stroke: #A80036; stroke-width: 1.0;" x1="799" x2="841" y1="1114.1719" y2="1114.1719"/><line style="stroke: #A80036; stroke-width: 1.0;" x1="841" x2="841" y1="1114.1719" y2="1127.1719"/><line style="stroke: #A80036; stroke-width: 1.0;" x1="800" x2="841" y1="1127.1719" y2="1127.1719"/><polygon fill="#A80036" points="810,1123.1719,800,1127.1719,810,1131.1719,806,1127.1719" style="stroke: #A80036; stroke-width: 1.0;"/><text fill="#000000" font-family="sans-serif" font-size="13" lengthAdjust="spacingAndGlyphs" textLength="63" x="806" y="1109.106">finish turn</text><line style="stroke: #000000; stroke-width: 1.0; stroke-dasharray: 2.0,2.0;" x1="20" x2="974" y1="1136.1719" y2="1136.1719"/><text fill="#000000" font-family="sans-serif" font-size="11" font-weight="bold" lengthAdjust="spacingAndGlyphs" textLength="63" x="25" y="1146.3823">[upgrade]</text><line style="stroke: #A80036; stroke-width: 1.0;" x1="799" x2="841" y1="1171.1094" y2="1171.1094"/><line style="stroke: #A80036; stroke-width: 1.0;" x1="841" x2="841" y1="1171.1094" y2="1184.1094"/><line style="stroke: #A80036; stroke-width: 1.0;" x1="800" x2="841" y1="1184.1094" y2="1184.1094"/><polygon fill="#A80036" points="810,1180.1094,800,1184.1094,810,1188.1094,806,1184.1094" style="stroke: #A80036; stroke-width: 1.0;"/><text fill="#000000" font-family="sans-serif" font-size="13" lengthAdjust="spacingAndGlyphs" textLength="156" x="806" y="1166.0435">player is in casting office</text><polygon fill="#A80036" points="86,1209.2422,76,1213.2422,86,1217.2422,82,1213.2422" style="stroke: #A80036; stroke-width: 1.0;"/><line style="stroke: #A80036; stroke-width: 1.0;" x1="80" x2="798" y1="1213.2422" y2="1213.2422"/><text fill="#000000" font-family="sans-serif" font-size="13" lengthAdjust="spacingAndGlyphs" textLength="253" x="92" y="1208.1763">exchange cash/credits for rank upgrade</text><line style="stroke: #A80036; stroke-width: 1.0;" x1="799" x2="841" y1="1249.375" y2="1249.375"/><line style="stroke: #A80036; stroke-width: 1.0;" x1="841" x2="841" y1="1249.375" y2="1262.375"/><line style="stroke: #A80036; stroke-width: 1.0;" x1="800" x2="841" y1="1262.375" y2="1262.375"/><polygon fill="#A80036" points="810,1258.375,800,1262.375,810,1266.375,806,1262.375" style="stroke: #A80036; stroke-width: 1.0;"/><text fill="#000000" font-family="sans-serif" font-size="13" lengthAdjust="spacingAndGlyphs" textLength="63" x="806" y="1244.3091">finish turn</text><!--MD5=[b575cb774092b0ba966dd446221def1c]
@startuml
title: Play day

participant Host
participant BoardController
actor Player

Player -> Player: take turn
Player -> Player: decide current position
Player -> Player: determine turn based on position
alt move
  Player -> BoardController: move one step to adjacent areas
  
  group "take role"
  Player -> BoardController: place die on role equal or below rank and not taken by other player
  end

  group "move onto set, no role"
  Player -> BoardController: place die on blank area of set
  end


else work
  Host -> Player: determine budget
  Player -> Player: decide to act or rehearse

  group "act"
   Player -> Player: roll 6-sided die
  group "success"
    Host -> Player: determine whether on card or off card
    Host -> Player: reward player with appropriate reward
    group on card
      Host -> Player: give player 2 credits
      end
    group off card
      Host -> Player: give player one dollar and one credit
      end

    Host -> BoardController: remove shot counter from board
    Host -> BoardController: if no more shot counters, perform wrap
    end
  group "failure"
    Host -> Player: determine whether play on or off card
    Host -> Player: reward with appropriate ammount
    group on card:
      Host -> Player: player gets no reward
      end
    group off card:
      Host -> Player: give player dollar
    end
  end
    
  Host -> BoardController: determine if wrap
  Player -> Player: finish turn


else upgrade
  Player -> Player: player is in casting office
  Player -> Host: exchange cash/credits for rank upgrade

end

Player -> Player: finish turn
@enduml

PlantUML version 1.2020.19(Mon Oct 12 08:10:01 PDT 2020)
(APACHE source distribution)
Java Runtime: OpenJDK Runtime Environment
JVM: OpenJDK 64-Bit Server VM
Default Encoding: UTF-8
Language: en
Country: null
--></g></svg>